<svg width="240" height="240" viewBox="0 0 240 240" fill="none" xmlns="http://www.w3.org/2000/svg">
  <rect width="240" height="240" fill="#F7F0E5"/>
  <g opacity="0.12" fill="#9F8868">
    <circle cx="24" cy="34" r="1.4"/>
    <circle cx="76" cy="18" r="1.2"/>
    <circle cx="142" cy="22" r="1.1"/>
    <circle cx="206" cy="44" r="1.6"/>
    <circle cx="44" cy="88" r="1.4"/>
    <circle cx="94" cy="66" r="1.1"/>
    <circle cx="168" cy="74" r="1.6"/>
    <circle cx="214" cy="96" r="1.2"/>
    <circle cx="24" cy="146" r="1.3"/>
    <circle cx="80" cy="126" r="1.6"/>
    <circle cx="136" cy="158" r="1.1"/>
    <circle cx="212" cy="140" r="1.5"/>
    <circle cx="54" cy="206" r="1.2"/>
    <circle cx="118" cy="202" r="1.5"/>
    <circle cx="176" cy="194" r="1.2"/>
    <circle cx="220" cy="214" r="1.4"/>
  </g>
  <g opacity="0.06" stroke="#A58A67">
    <path d="M0 28C42 42 64 14 98 28C134 43 146 15 186 30C208 38 225 39 240 34"/>
    <path d="M0 86C29 97 60 74 98 86C126 95 164 104 240 86"/>
    <path d="M0 156C22 148 50 142 86 158C114 170 168 174 240 154"/>
    <path d="M0 210C48 226 74 190 122 206C174 223 212 214 240 204"/>
  </g>
</svg>
