<svg width="96" height="96" viewBox="0 0 96 96" fill="none" xmlns="http://www.w3.org/2000/svg">
  <defs>
    <linearGradient id="bellMetal" x1="48" y1="12" x2="48" y2="78" gradientUnits="userSpaceOnUse">
      <stop stop-color="#FFE7A8"/>
      <stop offset="0.46" stop-color="#D9B26F"/>
      <stop offset="1" stop-color="#8C5C3B"/>
    </linearGradient>
  </defs>
  <path d="M48 8V28" stroke="#FFF4CF" stroke-width="6" stroke-linecap="round"/>
  <circle cx="48" cy="25" r="8" fill="#D9B26F" stroke="#FFF1C8" stroke-width="3"/>
  <path d="M24 58C24 38.67 34.75 24 48 24C61.25 24 72 38.67 72 58C72 68.49 61.25 76 48 76C34.75 76 24 68.49 24 58Z" fill="url(#bellMetal)" stroke="#FFF1C8" stroke-width="4"/>
  <path d="M30 58H66" stroke="#7A3E36" stroke-opacity="0.45" stroke-width="5" stroke-linecap="round"/>
  <path d="M42 75C42 71.69 44.69 69 48 69C51.31 69 54 71.69 54 75V80C54 83.31 51.31 86 48 86C44.69 86 42 83.31 42 80V75Z" fill="#7A3E36"/>
  <path d="M16 36C11 44 10 52 14 60" stroke="#78D9E7" stroke-opacity="0.72" stroke-width="4" stroke-linecap="round"/>
  <path d="M80 36C85 44 86 52 82 60" stroke="#78D9E7" stroke-opacity="0.72" stroke-width="4" stroke-linecap="round"/>
</svg>
