<svg xmlns="http://www.w3.org/2000/svg" viewBox="0 0 1600 1000" role="img" aria-label="Bright anime Eientei in bamboo forest">
  <defs>
    <linearGradient id="sky" x1="0" y1="0" x2="0" y2="1">
      <stop offset="0" stop-color="#c7f8d6"/>
      <stop offset=".52" stop-color="#f4ffe7"/>
      <stop offset="1" stop-color="#fff7df"/>
    </linearGradient>
    <linearGradient id="bamboo" x1="0" y1="0" x2="0" y2="1">
      <stop offset="0" stop-color="#91d78a"/>
      <stop offset="1" stop-color="#4ba875"/>
    </linearGradient>
    <radialGradient id="moon" cx=".68" cy=".18" r=".28">
      <stop offset="0" stop-color="#fffdf3" stop-opacity=".96"/>
      <stop offset=".46" stop-color="#e8d7ff" stop-opacity=".3"/>
      <stop offset="1" stop-color="#e8d7ff" stop-opacity="0"/>
    </radialGradient>
    <pattern id="softDots" width="80" height="80" patternUnits="userSpaceOnUse">
      <circle cx="18" cy="22" r="2" fill="#fff" opacity=".36"/>
      <circle cx="62" cy="48" r="1.6" fill="#e8d7ff" opacity=".45"/>
    </pattern>
  </defs>
  <rect width="1600" height="1000" fill="url(#sky)"/>
  <rect width="1600" height="1000" fill="url(#softDots)"/>
  <circle cx="1080" cy="150" r="360" fill="url(#moon)"/>
  <g opacity=".78">
    <path d="M110 90h34v820h-34zM256 36h30v900h-30zM1320 70h34v850h-34zM1462 20h30v930h-30z" fill="url(#bamboo)"/>
    <path d="M76 240h110M80 440h112M232 210h92M230 466h98M1280 260h118M1282 492h112M1428 232h98M1426 470h96" stroke="#e9ffe7" stroke-width="8" stroke-linecap="round" opacity=".62"/>
    <path d="M150 208c50-52 110-68 182-46-76 24-126 50-182 46zM1320 210c72-46 132-52 190-18-74 10-126 24-190 18z" fill="#7dd28b" opacity=".55"/>
  </g>
  <path d="M0 720c190-60 340-52 510-8 180 46 346 42 520-14 178-58 352-54 570 12v290H0z" fill="#8cd7a8" opacity=".38"/>
  <g opacity=".94">
    <path d="M392 516h816v278H392z" fill="#fff7ea"/>
    <path d="M342 484h916l-92-78H434z" fill="#8cc68b"/>
    <path d="M456 556h176v238H456zM968 556h176v238H968z" fill="#dcefcf"/>
    <path d="M684 560h232v234H684z" fill="#f6dfc3"/>
    <path d="M704 592h192v202H704z" fill="#fffaf2"/>
    <path d="M704 662h192M800 592v202" stroke="#a4c89c" stroke-width="5" opacity=".42"/>
    <path d="M350 796h900" stroke="#6da772" stroke-width="20" stroke-linecap="round" opacity=".62"/>
  </g>
  <g opacity=".72">
    <ellipse cx="260" cy="764" rx="60" ry="38" fill="#ffffff"/>
    <circle cx="232" cy="724" r="18" fill="#ffffff"/>
    <circle cx="288" cy="724" r="18" fill="#ffffff"/>
    <circle cx="238" cy="764" r="5" fill="#d88aa6"/>
    <circle cx="282" cy="764" r="5" fill="#d88aa6"/>
    <path d="M1336 746c36-44 94-46 140-2-52-12-96-8-140 2z" fill="#ffffff"/>
  </g>
  <g stroke="#d6b8ff" fill="none" opacity=".42">
    <path d="M474 374c150 52 300 50 450-4s292-50 430 12" stroke-width="3"/>
    <path d="M420 430c170 38 330 32 490-12s300-38 446 14" stroke-width="2"/>
  </g>
  <rect width="1600" height="1000" fill="#fff" opacity=".08"/>
</svg>
