<svg xmlns="http://www.w3.org/2000/svg" viewBox="0 0 1600 1000" role="img" aria-label="Secret Sealing Club observation foreground props">
  <defs>
    <radialGradient id="scanGlow" cx=".5" cy=".42" r=".46">
      <stop offset="0" stop-color="#66c7b4" stop-opacity=".26"/>
      <stop offset=".58" stop-color="#66c7b4" stop-opacity=".08"/>
      <stop offset="1" stop-color="#66c7b4" stop-opacity="0"/>
    </radialGradient>
    <linearGradient id="city" x1="0" y1="0" x2="0" y2="1">
      <stop offset="0" stop-color="#14324c" stop-opacity=".68"/>
      <stop offset="1" stop-color="#03060c" stop-opacity=".9"/>
    </linearGradient>
  </defs>
  <rect width="1600" height="1000" fill="none"/>
  <circle cx="800" cy="430" r="430" fill="url(#scanGlow)"/>
  <g fill="url(#city)" opacity=".76">
    <rect x="78" y="612" width="92" height="240" rx="10"/>
    <rect x="218" y="548" width="126" height="304" rx="14"/>
    <rect x="412" y="650" width="116" height="202" rx="14"/>
    <rect x="622" y="520" width="150" height="332" rx="16"/>
    <rect x="842" y="636" width="112" height="216" rx="14"/>
    <rect x="1060" y="570" width="140" height="282" rx="15"/>
    <rect x="1280" y="642" width="100" height="210" rx="12"/>
    <rect x="1430" y="506" width="116" height="346" rx="14"/>
  </g>
  <g fill="#d7c46a" opacity=".52">
    <rect x="246" y="588" width="16" height="5"/>
    <rect x="290" y="642" width="20" height="5"/>
    <rect x="652" y="560" width="20" height="5"/>
    <rect x="708" y="632" width="16" height="5"/>
    <rect x="1094" y="618" width="22" height="5"/>
    <rect x="1464" y="548" width="18" height="5"/>
  </g>
  <g transform="translate(800 430)" stroke="#e9f5f2" fill="none" opacity=".42">
    <circle r="320" stroke-width="2"/>
    <circle r="224" stroke-width="2" stroke-opacity=".58"/>
    <circle r="128" stroke-width="2" stroke-opacity=".52"/>
    <circle r="56" stroke-width="2" stroke-opacity=".44"/>
    <path d="M-430 0h860M0-430v860" stroke-width="1.4" stroke-opacity=".5"/>
    <path d="M-304-304l608 608M304-304L-304 304" stroke-width="1.2" stroke-opacity=".34"/>
    <path d="M-236-124l160 70 136-102 210 148 202-94" stroke="#66c7b4" stroke-width="3" stroke-opacity=".48"/>
    <path d="M-392 172c124-34 236-26 338 24 114 56 240 46 382-32" stroke="#d7c46a" stroke-width="2" stroke-opacity=".4"/>
  </g>
  <g opacity=".76">
    <circle cx="724" cy="376" r="8" fill="#d7c46a"/>
    <circle cx="1010" cy="422" r="9" fill="#66c7b4"/>
    <circle cx="1132" cy="328" r="7" fill="#d7c46a"/>
    <circle cx="514" cy="602" r="6" fill="#66c7b4"/>
  </g>
  <g font-family="ui-monospace, SFMono-Regular, Menlo, Consolas, monospace" font-size="28" fill="#e9f5f2" opacity=".34">
    <text x="168" y="190">RA 05:22</text>
    <text x="1048" y="214">BORDER 0.74</text>
    <text x="970" y="746">SCAN LOCKED</text>
    <text x="320" y="778">OUTSIDE SIGNAL</text>
  </g>
</svg>
