<svg xmlns="http://www.w3.org/2000/svg" viewBox="0 0 1600 1000" role="img" aria-label="Illustrated Kourindou curio shop interior">
  <defs>
    <linearGradient id="room" x1="0" y1="0" x2="0" y2="1">
      <stop offset="0" stop-color="#21140d"/>
      <stop offset="0.52" stop-color="#432719"/>
      <stop offset="1" stop-color="#0c0807"/>
    </linearGradient>
    <linearGradient id="lamp" x1="0" y1="0" x2="0" y2="1">
      <stop offset="0" stop-color="#ffe1a0"/>
      <stop offset="1" stop-color="#9f6030"/>
    </linearGradient>
    <radialGradient id="warm" cx="0.52" cy="0.24" r="0.45">
      <stop offset="0" stop-color="#f5c875" stop-opacity=".72"/>
      <stop offset=".54" stop-color="#b9894f" stop-opacity=".2"/>
      <stop offset="1" stop-color="#000" stop-opacity="0"/>
    </radialGradient>
    <pattern id="wood" width="160" height="80" patternUnits="userSpaceOnUse">
      <path d="M0 20c45 16 78-18 160 0M0 58c58-20 96 18 160 0" fill="none" stroke="#f4ead6" stroke-opacity=".07" stroke-width="3"/>
      <path d="M20 0v80M86 0v80M140 0v80" stroke="#000" stroke-opacity=".1"/>
    </pattern>
    <pattern id="dust" width="38" height="38" patternUnits="userSpaceOnUse">
      <path d="M6 8h1M18 19h1M30 10h1M12 32h1" stroke="#f4ead6" stroke-opacity=".18"/>
    </pattern>
  </defs>
  <rect width="1600" height="1000" fill="url(#room)"/>
  <rect width="1600" height="1000" fill="url(#wood)" opacity=".8"/>
  <rect width="1600" height="1000" fill="url(#dust)" opacity=".5"/>
  <circle cx="820" cy="245" r="540" fill="url(#warm)"/>
  <path d="M0 760h1600v240H0z" fill="#130c09"/>
  <path d="M105 164h306v610H105zM1190 146h305v626h-305z" fill="#22130c" opacity=".82"/>
  <path d="M132 206h252M132 338h252M132 470h252M1218 206h246M1218 350h246M1218 496h246" stroke="#b9894f" stroke-opacity=".34" stroke-width="16"/>
  <g opacity=".88">
    <rect x="520" y="560" width="560" height="245" rx="32" fill="#27160f"/>
    <rect x="562" y="600" width="476" height="64" rx="14" fill="#6b4128" opacity=".76"/>
    <rect x="584" y="682" width="432" height="72" rx="16" fill="#3a2216" opacity=".9"/>
    <path d="M538 552h524l62 58H476z" fill="#5a331e"/>
    <path d="M574 548h452" stroke="#f4ead6" stroke-opacity=".16" stroke-width="5"/>
  </g>
  <g>
    <path d="M736 226h128l28 58H708z" fill="#3b2418"/>
    <rect x="754" y="280" width="92" height="142" rx="36" fill="url(#lamp)" opacity=".95"/>
    <ellipse cx="800" cy="424" rx="86" ry="18" fill="#100907"/>
    <path d="M800 160v70" stroke="#c99455" stroke-width="10" stroke-linecap="round"/>
    <circle cx="800" cy="344" r="168" fill="#d8b15f" opacity=".08"/>
  </g>
  <g opacity=".9">
    <rect x="248" y="538" width="120" height="90" rx="14" fill="#6f9f92" opacity=".44"/>
    <rect x="222" y="640" width="170" height="95" rx="16" fill="#b9894f" opacity=".55"/>
    <rect x="1226" y="560" width="136" height="116" rx="18" fill="#415f55" opacity=".58"/>
    <rect x="1372" y="604" width="88" height="72" rx="12" fill="#b9894f" opacity=".48"/>
    <circle cx="330" cy="292" r="52" fill="#263a34" opacity=".72"/>
    <circle cx="1284" cy="286" r="48" fill="#6d472e" opacity=".75"/>
    <path d="M300 292h60M1252 286h64" stroke="#f4ead6" stroke-opacity=".32" stroke-width="8"/>
  </g>
  <g>
    <rect x="600" y="404" width="128" height="78" rx="10" fill="#f4ead6" opacity=".74" transform="rotate(-7 664 443)"/>
    <rect x="896" y="392" width="120" height="70" rx="10" fill="#f4ead6" opacity=".66" transform="rotate(8 956 427)"/>
    <path d="M628 442h72M920 428h66" stroke="#55301e" stroke-width="6" opacity=".54"/>
    <path d="M650 460h46M944 446h34" stroke="#55301e" stroke-width="4" opacity=".44"/>
  </g>
  <g fill="#f4ead6" opacity=".36">
    <circle cx="482" cy="250" r="3"/>
    <circle cx="1012" cy="272" r="2"/>
    <circle cx="412" cy="656" r="2"/>
    <circle cx="1194" cy="710" r="3"/>
    <circle cx="786" cy="514" r="2"/>
    <circle cx="1090" cy="466" r="2"/>
  </g>
  <rect width="1600" height="1000" fill="#090705" opacity=".18"/>
</svg>
