<svg xmlns="http://www.w3.org/2000/svg" viewBox="0 0 1200 800" role="img" aria-label="Bamboo and moon rabbit ornament">
  <rect width="1200" height="800" fill="none"/>
  <g stroke="#f7fff7" fill="none" opacity=".45">
    <path d="M116 520c142-54 280-46 414 24 130 68 282 56 468-36" stroke-width="3"/>
    <path d="M168 598c150-34 280-24 390 22 130 54 268 42 432-32" stroke-width="2"/>
  </g>
  <g fill="#65b987" opacity=".66">
    <rect x="162" y="126" width="28" height="540" rx="14"/>
    <rect x="1018" y="96" width="28" height="590" rx="14"/>
    <path d="M194 250c72-54 140-66 204-34-78 14-138 30-204 34z"/>
    <path d="M802 214c76-50 144-56 204-22-80 10-140 22-204 22z"/>
  </g>
  <g fill="#fff" opacity=".74">
    <ellipse cx="620" cy="380" rx="60" ry="38"/>
    <circle cx="592" cy="342" r="18"/>
    <circle cx="648" cy="342" r="18"/>
    <path d="M584 326l-18-58M654 326l22-58" stroke="#fff" stroke-width="14" stroke-linecap="round"/>
  </g>
  <g font-family="serif" font-size="28" fill="#f7fff7" opacity=".42">
    <text x="242" y="214">Moon Remedy</text>
    <text x="758" y="626">Eientei</text>
  </g>
</svg>
