<svg xmlns="http://www.w3.org/2000/svg" viewBox="0 0 1200 800" role="img" aria-label="Ofuda and boundary line ornament">
  <defs>
    <pattern id="paper" width="90" height="90" patternUnits="userSpaceOnUse">
      <path d="M12 22h1M48 12h1M72 50h1M20 78h1" stroke="#fff0da" stroke-opacity=".26"/>
    </pattern>
  </defs>
  <rect width="1200" height="800" fill="none"/>
  <g stroke="#fff8ee" stroke-opacity=".62" fill="none">
    <path d="M60 280c180 74 348 70 504-14s318-78 480 18" stroke-width="3"/>
    <path d="M96 348c166 54 322 51 468-10s304-60 512 20" stroke-width="2"/>
    <path d="M142 424c148 42 296 42 444 0s318-36 472 24" stroke-width="1.5"/>
  </g>
  <g fill="#fff8ee" opacity=".9">
    <rect x="118" y="180" width="84" height="144" rx="8" transform="rotate(-12 160 252)"/>
    <rect x="480" y="136" width="82" height="138" rx="8" transform="rotate(7 521 205)"/>
    <rect x="914" y="186" width="88" height="150" rx="8" transform="rotate(12 958 261)"/>
    <rect x="250" y="456" width="78" height="132" rx="8" transform="rotate(9 289 522)"/>
    <rect x="738" y="480" width="82" height="140" rx="8" transform="rotate(-8 779 550)"/>
  </g>
  <g stroke="#bf3132" stroke-width="7" stroke-linecap="round" opacity=".58">
    <path d="M144 240h44M136 270h52M504 190h36M500 220h46M938 248h44M936 278h48M270 508h38M266 536h42M760 532h38M756 562h42"/>
  </g>
  <rect width="1200" height="800" fill="url(#paper)" opacity=".5"/>
</svg>
